<?xml version="1.0" encoding="UTF-8"?><svg xmlns="http://www.w3.org/2000/svg" xmlns:xlink="http://www.w3.org/1999/xlink" height="392.4" preserveAspectRatio="xMidYMid meet" version="1.0" viewBox="0.0 -0.1 445.0 392.4" width="445.0" zoomAndPan="magnify"><g data-name="Layer 2"><g id="change1_1"><path d="M444.84,116.35l-6.54,51.73a3,3,0,0,1-2.79,2.63l-2.29.15a3,3,0,0,0-2.81,2.78l-.6,8.07,0,.25-.36,4.7L426.92,220l-3.59,47.61h0l-8.52,113.05a3,3,0,0,1-3,2.79H39.13a3,3,0,0,1-3-2.71L26.08,282.25h0l-1.54-15.07h0L19.66,219.4,19.11,214h0l-1.25-12.3a3,3,0,0,0-3.21-2.7l-1.17.08a3,3,0,0,1-3.11-2.23l-5.14-19a3,3,0,0,1,2.49-3.78L206.87,146a3,3,0,0,0,2.6-3v-19.4a3,3,0,0,1,2.62-3l71.35-9.41a3,3,0,0,1,3.41,3.1l-.63,16.93a3,3,0,0,0,3.44,3.1L441.43,113A3,3,0,0,1,444.84,116.35Z" fill="#294774"/></g><g id="change1_2"><path d="M117.92,64.3h14l-14-22H70.4L66.79,1.32a1.44,1.44,0,0,0-2.88,0l-3,40.91H12.17L0,64.3H12.17V73H4.94L21.1,127.61l20,24.2V383.4H93.31V151.81l20-24.2L127.2,73h-9.28Z" fill="#294774"/></g><g id="change2_1"><path d="M21.1 127.61L4.94 72.97 127.2 72.97 113.31 127.61 21.1 127.61z" fill="#759dcc"/></g><g id="change3_1"><path d="M327.75,140.33c.07-3.15,2.15-2.42,2.82-.12,1,3.37,1.78,6.44,6.27,24.34,0,.75-1,1.37-1.62.31l-1.49-6.08-4.57.88c-.21,1.61-.32,4.65-.32,6.09,0,.82-1.51.67-1.5.06Zm1.33,15.85c0,.24,0,1.57,0,1.84l4.23-.8-4-15C329.28,144.29,329.09,154.06,329.08,156.18Z" fill="#fefaed" stroke="#fefaed" stroke-miterlimit="10" stroke-width=".71"/></g><g id="change3_2"><path d="M342,139.65l2.39,20.72a16.54,16.54,0,0,1,.25,1.8c0,.54-.55.77-1.13.79-.75,0-.91-.61-1-1.25L341,146.79c-.27-2.45-.75-4.88-.79-7.34C340.2,138.6,341.91,138.83,342,139.65Z" fill="#fefaed" stroke="#fefaed" stroke-miterlimit="10" stroke-width=".71"/></g><g id="change3_3"><path d="M350.58,149.93c0-1.06-.48-7.25-.62-8.85,0-.34-.34-3.33-.39-3.7v-.14c0-.78.84-1,1.53-1.06,4.7-.2,6.51,3.1,6.68,7a7.41,7.41,0,0,1-3.09,6.76c4,1.57,5.19,7.08,5.35,10.89,0,.62-.34.87-.95.9-.41,0-.58,0-.78-.51-.27-2.55-1.23-9.75-5.19-9.58l-.33.05c-.21,3.87.26,7.74.19,11.63a1.1,1.1,0,0,1-1.81.08C351.11,161.38,350.7,152,350.58,149.93Zm1.84-.9c2.4-.58,3.62-3.3,3.52-5.44-.07-1.81-1-5.52-3.44-5.42-.13,0-1.19.05-1.18.33Z" fill="#fefaed" stroke="#fefaed" stroke-miterlimit="10" stroke-width=".71"/></g><g id="change3_4"><path d="M366.25,163.49c-.13-4-.79-22.36-.89-26.35a2.36,2.36,0,0,1,1.57-.75c4.4-.19,6.7,3.4,6.88,7.49.21,4.87-1.72,7.68-5.64,10.21l-.15,2.09c0,1.12.07,6.34.08,7.44-.15.58-.31.76-.89.78s-.93-.16-.95-.77Zm1.52-13.14.06,1.47a2.91,2.91,0,0,0,1.14-.6c2.2-1.9,2.66-4.07,2.54-6.83-.09-2.12-.54-6.09-3.54-6-.2,0-.37,0-.46.29Z" fill="#fefaed" stroke="#fefaed" stroke-miterlimit="10" stroke-width=".71"/></g><g id="change3_5"><path d="M383.61,136.8c7.56-.32,9.62,23.86,2.15,24.83-.13,0-.27,0-.4.05-2.86.12-4.5-1.51-5.46-4.61C379.37,155,375.05,137.17,383.61,136.8Zm-2.14,18.63c.32,1.11,1.58,4.3,3.3,4.4a2.24,2.24,0,0,0,.4,0c2.28-.3,2.86-4.32,3.09-5.94.43-2.74.33-15.41-4.51-15.2h-.27C378.36,139.38,380.72,153,381.47,155.43Z" fill="#fefaed" stroke="#fefaed" stroke-miterlimit="10" stroke-width=".71"/></g><g id="change3_6"><path d="M395.18,148c0-1-.48-7.25-.62-8.85,0-.34-.35-3.33-.4-3.7v-.14c0-.78.84-1,1.52-1,4.7-.2,6.52,3.1,6.69,7a7.42,7.42,0,0,1-3.09,6.75c4,1.57,5.18,7.08,5.35,10.9,0,.61-.34.87-.95.89-.41,0-.58,0-.78-.51-.28-2.55-1.24-9.74-5.19-9.57l-.34.05c-.21,3.86.27,7.73.2,11.63a1.1,1.1,0,0,1-1.81.07C395.71,159.46,395.3,150.06,395.18,148Zm1.84-.9c2.4-.58,3.61-3.29,3.52-5.44-.08-1.8-1-5.52-3.44-5.41-.14,0-1.19.05-1.18.32Z" fill="#fefaed" stroke="#fefaed" stroke-miterlimit="10" stroke-width=".71"/></g><g id="change3_7"><path d="M410.75,146.42c-.12-2.62-.43-9.23-.47-9.26h-2.73c-1.1-.26-1.56-1.3.09-1.78,2.66,0,5.25-.22,8-.14,1.54.07,1.51,1.78.52,1.83l-3.72.09s.3,10.84.42,15.24c.06,1.39,0,4,.11,5.66l0,.44c-.23,1-1.64.79-1.92-.15C411,155.94,410.85,148.88,410.75,146.42Z" fill="#fefaed" stroke="#fefaed" stroke-miterlimit="10" stroke-width=".71"/></g><g id="change1_3"><path d="M30.66,133a2,2,0,0,1-2-1.67L17.26,63.27a2,2,0,1,1,3.95-.67l11.43,68.1A2,2,0,0,1,31,133Z" fill="#294774"/></g><g id="change1_4"><path d="M53.21,133a2,2,0,0,1-2-1.85L46,63.09a2,2,0,1,1,4-.31l5.2,68.1A2,2,0,0,1,53.36,133Z" fill="#294774"/></g><g id="change1_5"><path d="M78.53,133h-.18a2,2,0,0,1-1.82-2.17l6-68.09a2,2,0,0,1,2.17-1.82,2,2,0,0,1,1.81,2.17l-6,68.09A2,2,0,0,1,78.53,133Z" fill="#294774"/></g><g id="change1_6"><path d="M100.09,133a1.72,1.72,0,0,1-.39,0,2,2,0,0,1-1.58-2.35l13.5-68.09a2,2,0,1,1,3.92.77l-13.49,68.1A2,2,0,0,1,100.09,133Z" fill="#294774"/></g><path d="M157.44 230.13H315.90999999999997V263.85H157.44z" fill="none" transform="rotate(-2.44 236.447 246.737)"/><path d="M97.02 310.3H156.76999999999998V344.02H97.02z" fill="none" transform="rotate(-2.45 127.037 327.647)"/><path d="M93.79 234.94H153.54000000000002V268.65999999999997H93.79z" fill="none" transform="rotate(-2.44 123.596 251.615)"/><path d="M159.06 267.81H317.53V301.53H159.06z" fill="none" transform="rotate(-2.44 238.225 284.592)"/><path d="M95.41 272.62H155.16V306.34000000000003H95.41z" fill="none" transform="rotate(-2.44 125.144 289.23)"/><path d="M160.67 305.49H319.14V339.21000000000004H160.67z" fill="none" transform="rotate(-2.45 240.363 322.819)"/><path d="M323.04 300.68H382.79V334.4H323.04z" fill="none" transform="rotate(-2.45 353.455 317.985)"/><path d="M321.42 263H381.17V296.72H321.42z" fill="none" transform="rotate(-2.44 351.076 279.714)"/><path d="M319.81 225.31H379.56V259.03H319.81z" fill="none" transform="rotate(-2.44 349.528 242.098)"/><g id="change4_1"><path d="M382.64,219.89l-1.82-42.51a2,2,0,1,0-4,.18l1.82,42.5-59.7,2.54-1.75-41a2,2,0,1,0-4,.18l1.76,41-158.33,6.75-1.69-39.38a2,2,0,1,0-4,.17l1.68,39.38-59.69,2.54L91.3,194.39a2,2,0,1,0-4,.17l1.62,37.84-67.65,2.88.41,4,67.41-2.88,1.44,33.69-65.42,2.79.4,4,65.2-2.77,1.44,33.69L29,310.46l.4,4,63-2.68,1.44,33.69-61,2.6.41,4L94,349.44l1.45,34h4l-1.47-34.18,59.7-2.54,1.57,36.72h4l-1.58-36.89L320,339.82l1.87,43.63h4L324,339.65l59.7-2.54,2,46.34h4l-2-46.51,30.56-1.3.3-4-31,1.32L386,299.25l35-1.49.3-4-35.49,1.51-1.45-33.69,39.49-1.68.31-4-40,1.7-1.44-33.68,44-1.87.15-2,.15-2ZM93.1,236.22l59.7-2.54,1.44,33.69-59.7,2.54Zm1.61,37.69,59.7-2.54,1.44,33.68L96.16,307.6Zm3.06,71.37-1.44-33.69L156,309.05l1.45,33.69Zm59-111.77,158.33-6.74,1.44,33.69L158.23,267.2Zm1.62,37.69,158.32-6.75,1.45,33.69-158.33,6.74Zm3.05,71.37L160,308.88l158.33-6.74,1.44,33.68Zm157.65-116,59.7-2.54,1.45,33.68-59.7,2.55Zm1.62,37.68,59.7-2.54,1.44,33.69L322.17,298Zm62.76,68.83-59.7,2.54L322.34,302l59.7-2.55Z" fill="#5b80a5"/></g><g id="change2_2"><path d="M270.77,392.3H209.12a6.5,6.5,0,0,1-6.5-6.5V107.3a5,5,0,0,1,4.38-5l75.17-9.92a5,5,0,0,1,5.7,5.19L277.27,386A6.5,6.5,0,0,1,270.77,392.3Z" fill="#759dcc"/></g><g id="change3_8"><path d="M10.66,197.57a3,3,0,0,0,2.82,1.54l1.17-.08a3,3,0,0,1,3.21,2.7l0,.36,412.49-28,0-.49a3,3,0,0,1,2.81-2.78l2.29-.15a3,3,0,0,0,2.68-2.13Z" fill="#fefaed"/></g><g id="change1_7"><path d="M283.22,262.12l-.14,4-80.46,3.43v-4Zm-80.6,82.44,77.69-3.31.15-4-77.84,3.32Zm0-160v5L284.7,184l.18-5Z" fill="#294774"/></g><g id="change3_9"><path d="M40.33 150.88L41.1 151.81 41.1 154.84 93.31 151.98 93.31 151.81 96.62 147.79 40.33 150.88z" fill="#fefaed"/></g></g></svg>